<?xml version="1.0" standalone="no"?>
<!DOCTYPE svg PUBLIC "-//W3C//DTD SVG 20010904//EN"
 "http://www.w3.org/TR/2001/REC-SVG-20010904/DTD/svg10.dtd">
<svg version="1.0" xmlns="http://www.w3.org/2000/svg"
 width="768.000000pt" height="1280.000000pt" viewBox="0 0 768.000000 1280.000000"
 preserveAspectRatio="xMidYMid meet">
<metadata>
Created by potrace 1.15, written by Peter Selinger 2001-2017
</metadata>
<g transform="translate(0.000000,1280.000000) scale(0.100000,-0.100000)"
fill="#000000" stroke="none">
<path d="M2200 12790 c-77 -16 -180 -75 -305 -174 -66 -53 -177 -129 -247
-171 -144 -86 -182 -115 -203 -156 -46 -88 14 -179 155 -235 l72 -29 -6 -110
c-4 -60 -12 -137 -19 -170 -12 -58 -14 -60 -46 -63 -62 -6 -78 3 -85 52 -6 41
-9 44 -44 50 -20 3 -105 6 -189 6 l-152 0 -3 -122 -3 -123 -332 4 -332 4 -22
-38 -23 -38 -25 54 c-17 36 -32 54 -43 53 -10 0 -93 -1 -184 -2 l-167 -2 5
-295 c3 -162 7 -297 9 -299 2 -3 88 -8 191 -12 l187 -7 12 47 c6 25 14 46 16
46 3 0 14 -11 25 -25 17 -22 27 -25 77 -25 l58 0 5 -51 c9 -94 62 -129 144
-94 25 10 40 12 42 5 15 -43 55 -99 88 -122 58 -41 140 -66 322 -99 251 -45
251 -45 263 -252 10 -150 35 -423 45 -470 5 -23 0 -35 -21 -57 -21 -22 -26
-36 -23 -59 2 -16 1 -28 -4 -25 -14 9 -9 -10 27 -112 49 -136 161 -360 237
-474 83 -124 158 -199 243 -241 60 -29 80 -34 165 -37 l96 -4 12 -57 c17 -80
50 -133 92 -149 110 -39 352 48 677 244 68 41 126 74 131 74 4 0 83 -152 175
-337 138 -278 171 -353 186 -423 83 -376 74 -664 -30 -973 -73 -218 -281 -625
-527 -1032 -47 -77 -85 -147 -85 -154 0 -8 -71 -110 -157 -225 -202 -272 -240
-327 -407 -591 -293 -463 -422 -703 -443 -825 -35 -204 -40 -257 -40 -431 0
-235 30 -531 120 -1194 32 -237 36 -491 11 -722 l-21 -193 21 -337 c19 -317
20 -343 4 -433 -26 -160 -28 -164 -123 -260 -99 -100 -186 -160 -275 -189 -68
-23 -210 -40 -327 -41 -167 -1 -260 -51 -260 -140 0 -117 99 -197 290 -236
102 -21 250 -23 684 -10 l309 9 79 39 c44 21 99 52 124 68 l44 31 0 -45 0 -45
58 5 c281 24 601 70 619 88 12 11 19 269 11 396 -8 133 -31 218 -83 304 l-36
60 -19 555 c-48 1346 -80 2304 -80 2359 l0 59 371 312 c204 172 373 310 376
308 2 -3 48 -362 100 -799 l95 -793 56 -50 c156 -139 2146 -1916 2200 -1965
l63 -56 29 -129 c31 -134 34 -141 62 -147 23 -4 -114 -164 -208 -241 -140
-117 -242 -151 -497 -167 -95 -7 -196 -18 -226 -25 -147 -37 -175 -188 -54
-294 121 -107 344 -137 812 -107 139 9 311 16 382 16 149 0 176 8 321 95 50
30 93 55 95 55 1 0 3 -21 3 -46 l0 -45 43 5 c23 3 110 13 192 22 194 21 496
71 509 84 7 7 11 94 11 248 0 197 -3 251 -19 317 -41 174 -124 300 -283 426
l-62 50 14 40 14 39 -311 338 c-935 1012 -1299 1390 -1720 1789 -202 190 -231
222 -260 281 -33 67 -33 67 -32 217 1 202 42 480 145 983 85 413 140 616 284
1034 74 213 144 433 156 488 13 55 27 100 31 100 4 0 42 -14 84 -30 42 -17 79
-28 83 -25 3 4 15 201 27 438 l20 432 -108 341 c-93 295 -121 369 -202 540
-211 448 -235 519 -281 834 -29 204 -46 276 -114 500 -180 593 -509 1392 -716
1739 -172 288 -314 400 -513 407 l-83 2 -31 46 c-37 57 -143 166 -160 166 -7
0 -82 -52 -167 -115 -85 -64 -155 -114 -157 -113 -14 14 -54 147 -94 314 -58
239 -91 330 -153 416 -105 148 -285 260 -518 323 -105 29 -273 41 -349 25z
m-333 -1693 c41 -55 102 -170 149 -282 20 -49 44 -98 52 -107 45 -53 304 19
380 106 17 20 43 59 57 86 14 28 29 50 33 50 21 -1 187 -100 186 -111 -1 -13
-153 -268 -186 -312 -13 -17 -16 -17 -52 -2 -54 23 -96 13 -180 -41 -38 -24
-80 -44 -93 -44 -51 0 -97 40 -260 225 -90 103 -118 181 -127 358 -3 64 -3
117 1 117 5 0 22 -20 40 -43z m366 -781 c42 -27 77 -51 77 -55 0 -3 -35 -42
-79 -85 l-79 -78 -46 65 c-35 49 -58 100 -91 196 l-43 130 91 -63 c51 -34 127
-84 170 -110z"/>
</g>
</svg>
